{"glyphs":{"0":{"ha":800,"x_min":0,"x_max":0,"o":"m 51 0 l 751 0 l 751 972 l 51 972 z m 228 488 b 407 957 228 769 300 957 b 586 488 514 957 586 769 b 407 17 586 204 514 17 b 228 488 300 17 228 204 z "},"1":{"ha":906,"x_min":0,"x_max":0,"o":"m 369 972 l 369 169 b 124 13 339 -8 179 15 l 124 0 l 875 0 l 875 13 b 626 169 819 15 657 -8 l 626 972 z m 53 435 b 257 526 142 438 197 460 b 369 972 339 618 369 844 l 353 972 b 219 757 353 889 314 757 l 53 757 z "},"2":{"ha":760,"x_min":0,"x_max":0,"o":"m 38 556 l 536 556 l 536 569 l 428 569 b 283 710 328 572 283 606 b 450 949 283 828 342 949 b 586 742 540 949 586 864 b 40 326 586 428 376 326 l 40 -8 l 694 -8 l 694 592 b 707 694 703 626 707 661 b 383 972 707 831 619 972 b 38 556 201 972 38 831 z m 150 10 b 679 535 360 47 599 294 b 551 58 676 329 653 129 b 357 10 499 21 457 11 z "},"3":{"ha":772,"x_min":0,"x_max":0,"o":"m 33 383 b 396 0 33 140 178 0 b 749 285 619 0 749 104 b 646 513 749 404 693 457 l 318 513 l 749 972 l 46 972 l 46 793 l 336 793 l 72 513 l 72 499 l 418 499 b 579 215 479 478 579 367 b 399 17 579 146 558 17 b 211 208 285 17 211 136 b 497 369 211 369 386 369 l 497 383 z "},"4":{"ha":1013,"x_min":0,"x_max":0,"o":"m 36 232 l 519 232 l 519 169 l 518 169 b 272 13 488 -8 328 15 l 272 0 l 964 0 l 964 13 b 717 163 910 15 750 -7 l 717 251 b 925 381 729 335 824 382 l 925 394 l 717 394 l 717 972 l 519 972 b 36 393 503 692 389 554 z m 90 393 b 519 814 335 506 471 625 l 519 394 z "},"5":{"ha":883,"x_min":0,"x_max":0,"o":"m 57 415 b 419 0 57 172 201 0 b 851 285 643 0 851 104 b 749 513 851 404 796 457 l 393 513 l 214 960 l 372 960 l 531 564 l 772 569 l 614 972 l -35 972 l 147 499 l 442 499 b 603 215 503 478 603 367 b 422 17 603 146 582 17 b 235 208 308 17 235 111 b 521 401 235 369 410 401 l 521 415 z "},"6":{"ha":711,"x_min":0,"x_max":0,"o":"m 192 942 l 289 942 b 225 688 585 942 236 854 l 557 688 l 654 960 l 39 960 l 39 0 l 293 0 b 685 343 450 0 685 53 b 407 631 685 542 574 631 b 207 536 331 631 236 589 l 207 24 l 193 24 z m 267 303 b 464 500 267 421 346 500 b 661 310 582 500 661 421 b 464 106 661 199 582 106 b 267 303 346 106 267 185 z "},"7":{"ha":832,"x_min":0,"x_max":0,"o":"m 43 658 l 469 658 l 592 953 l 674 953 b 76 0 892 725 88 381 l 413 0 b 818 972 413 399 660 593 l 43 972 z "},"8":{"ha":761,"x_min":0,"x_max":0,"o":"m 35 322 b 381 -18 35 119 82 -18 b 725 322 678 -18 725 119 b 635 503 725 422 693 475 b 725 778 708 563 725 657 b 381 990 725 983 586 990 b 35 778 174 990 35 983 b 126 503 35 657 51 563 b 35 322 68 475 35 422 z m 250 725 b 382 972 250 874 281 972 b 511 725 485 972 511 874 b 379 476 510 575 483 476 b 250 725 278 476 249 575 z m 54 322 b 381 440 54 394 129 440 b 706 322 640 440 706 394 b 381 207 706 253 640 207 b 54 322 129 207 54 253 z "},"9":{"ha":996,"x_min":0,"x_max":0,"o":"m 78 674 b 374 357 78 490 194 365 l -7 0 l 297 0 l 976 674 l 711 674 b 394 990 711 864 585 990 b 78 674 204 990 78 864 z m 331 674 b 394 960 331 846 356 960 b 458 674 433 960 458 846 b 394 388 458 501 433 388 b 331 674 356 388 331 501 z "},"\u0000":{"ha":0,"x_min":0,"x_max":0,"o":""},"\r":{"ha":463,"x_min":0,"x_max":0,"o":""}," ":{"ha":386,"x_min":0,"x_max":0,"o":""},"A":{"ha":942,"x_min":0,"x_max":0,"o":"m 818 825 b 694 1042 842 982 764 1042 b 214 867 546 1042 410 867 b 124 1013 149 867 78 911 l 121 1017 b 74 792 97 978 74 889 b 176 644 74 729 107 644 b 672 1024 317 644 565 1025 b 699 992 689 1024 699 1017 b -17 182 693 788 -17 508 b 217 -44 -17 76 54 -44 b 625 678 325 -44 481 240 l 640 678 l 438 104 b 647 -28 475 33 569 -28 b 903 393 840 -28 1033 315 b 664 243 849 425 726 332 l 669 238 b 731 269 696 269 708 272 b 663 -7 803 263 760 -33 b 650 228 621 4 613 79 b 818 825 685 361 800 710 z m 665 869 b 278 178 576 571 465 178 b 193 282 218 178 190 219 b 658 876 204 535 428 636 z "},"B":{"ha":946,"x_min":0,"x_max":0,"o":"m 161 1029 b 113 800 136 989 113 899 b 189 650 113 735 126 650 b 564 957 299 650 358 957 b 710 686 613 957 750 914 b 494 496 663 426 500 581 b 632 482 490 438 557 481 b 699 197 783 486 767 297 b 328 78 607 61 390 -11 b 601 200 261 174 581 279 b 578 132 607 176 606 165 l 583 128 b 699 400 661 206 740 349 b 313 71 600 526 235 258 b 936 246 394 -128 936 -143 b 550 496 936 556 632 496 l 549 503 b 921 810 624 506 921 556 b 724 1042 921 897 886 1042 b 261 857 519 1043 404 857 b 171 1026 192 857 150 956 z m 453 803 b 50 301 338 564 271 289 l -1 -57 b 589 815 260 -57 351 353 z "},"C":{"ha":733,"x_min":0,"x_max":0,"o":"m 658 1000 b 574 840 678 932 638 840 b 200 1031 439 840 392 1032 b 15 814 47 1031 15 896 l 15 415 b 464 0 15 167 208 0 l 706 0 l 706 385 l 694 385 b 463 22 694 126 535 22 b 210 364 315 22 210 185 l 210 797 b 338 949 217 919 304 949 b 640 644 478 949 468 644 b 714 788 699 644 714 725 b 667 1003 714 879 690 964 z "},"E":{"ha":840,"x_min":0,"x_max":0,"o":"m 735 1022 b 646 860 769 950 710 860 b 206 1035 508 860 400 1036 b 19 828 51 1035 19 899 b 511 553 19 572 439 556 l 511 544 b 4 279 432 544 4 572 b 789 113 4 -89 701 -125 b 422 426 878 356 517 546 b 531 168 383 378 457 243 l 538 172 b 515 238 511 203 510 215 b 772 115 536 311 844 274 b 292 233 708 -25 443 -4 b 428 521 210 363 285 524 b 640 544 499 519 640 471 b 207 754 640 660 279 465 b 357 951 163 931 310 951 b 714 663 550 951 610 663 b 788 807 772 663 788 744 b 740 1024 788 900 764 986 z "},"D":{"ha":871,"x_min":0,"x_max":0,"o":"m 108 1032 b 60 814 83 994 60 908 b 135 671 60 753 75 671 b 501 967 239 671 307 967 b 618 826 560 967 618 924 l 621 201 b 539 14 621 50 611 14 b 372 263 489 14 425 258 b 339 263 364 263 351 263 l 339 0 l 538 0 b 832 196 692 -6 832 33 l 831 842 b 643 1043 831 907 797 1043 b 203 868 449 1044 339 868 b 117 1029 138 868 97 961 z m 197 407 b 8 228 153 310 86 222 l 7 -1 b 571 828 256 -1 343 388 l 388 828 z "},"F":{"ha":849,"x_min":0,"x_max":0,"o":"m 110 1025 b 63 807 86 986 63 900 b 136 664 63 744 78 664 b 508 939 240 664 314 939 b 618 819 567 939 618 917 l 619 735 l 831 735 l 831 833 b 644 1035 831 899 797 1035 b 204 860 450 1036 340 860 b 118 1022 139 860 100 954 z m 257 529 l 11 529 l 11 221 l 10 -7 b 422 507 196 -7 290 211 l 450 507 b 532 279 528 507 533 474 l 740 276 b 449 529 740 489 611 529 l 433 529 b 571 821 474 621 518 719 l 389 821 z m 22 394 b 246 506 22 476 67 499 l 199 400 b 22 221 158 308 94 225 z "},"G":{"ha":1039,"x_min":0,"x_max":0,"o":"m 667 999 b 582 839 719 929 646 839 b 208 1031 447 839 400 1032 b 24 813 56 1031 24 894 l 24 415 b 472 0 24 167 217 0 l 910 0 l 910 397 l 1013 397 b 722 596 1013 558 875 596 l 290 596 l 290 338 b 301 338 301 338 294 338 l 301 467 b 724 581 307 578 318 581 b 804 397 794 581 804 549 l 894 397 b 471 18 864 72 713 18 b 218 364 324 18 218 185 l 218 797 b 354 943 226 918 321 943 b 649 644 496 943 476 644 b 722 786 708 644 722 725 b 675 1001 722 879 699 964 z "},"H":{"ha":921,"x_min":0,"x_max":0,"o":"m 590 0 b 860 219 735 -6 860 11 b 683 489 860 385 781 461 l 858 489 l 858 972 l 657 972 l 657 494 b 586 501 633 499 610 501 l 376 501 l 376 972 l 175 972 l 175 501 l 35 501 l 35 236 l 33 -1 b 376 394 188 -1 372 128 l 376 479 b 588 481 439 481 510 481 b 664 256 649 481 664 431 b 588 13 664 76 654 13 b 431 246 540 13 481 242 b 400 246 424 246 411 246 l 404 0 z m 175 404 b 49 236 175 313 144 238 l 49 375 b 175 463 49 421 93 447 z "},"I":{"ha":554,"x_min":0,"x_max":0,"o":"m 282 -46 l 560 240 l 546 251 b 413 157 515 210 468 157 l 242 260 l 413 450 l 413 768 l 514 893 l 271 1043 l -7 757 l 7 746 b 136 840 44 797 86 840 b 193 833 156 840 175 838 l 193 294 l 39 104 z "},"J":{"ha":553,"x_min":0,"x_max":0,"o":"m 263 -235 b 511 94 386 -186 508 -71 l 511 836 b 421 1044 535 988 490 1044 b 122 888 282 1044 319 888 b 39 1029 58 888 19 961 l 31 1032 b -17 815 7 993 -17 908 b 86 672 -17 754 15 672 b 400 1029 226 672 292 1031 b 297 772 526 1028 506 840 l 297 208 l 6 208 l 6 -81 z m 297 106 b 19 -74 297 8 129 -71 l 19 74 b 297 192 19 156 121 186 z "},"K":{"ha":926,"x_min":0,"x_max":0,"o":"m 264 -44 l 399 144 l 222 260 l 393 450 l 393 501 l 472 501 b 722 154 678 474 722 299 b 633 -29 722 6 704 -29 b 435 224 538 -29 526 224 b 429 224 428 224 442 224 l 429 -43 l 632 -43 b 931 157 789 -49 931 -10 b 532 501 931 324 711 461 l 574 501 l 840 629 b 1019 1004 849 793 790 1004 l 1019 1015 l 751 1014 b 578 519 528 996 703 675 l 393 519 l 393 768 l 494 893 l 251 1042 l -25 757 l -11 744 b 117 840 26 796 67 840 b 175 832 136 840 156 836 l 175 294 l 21 106 z "},"L":{"ha":850,"x_min":0,"x_max":0,"o":"m 260 1 l 376 163 l 575 3 b 813 -68 632 35 746 142 l 822 -65 l 743 181 b 346 211 682 356 513 121 l 221 293 l 383 476 l 383 779 l 481 900 l 247 1043 l -17 769 l -4 758 b 119 849 32 807 71 849 b 174 842 138 849 157 846 l 174 326 l 26 144 z "},"M":{"ha":1204,"x_min":0,"x_max":0,"o":"m 215 457 b 36 311 192 363 108 307 l 36 0 l 824 0 b 1156 183 968 0 1156 31 l 1153 972 l 343 972 z m 956 958 l 958 189 b 825 14 958 46 892 14 b 438 118 433 14 442 7 b 739 368 589 121 707 185 l 865 958 z m 424 14 b 58 118 125 13 72 14 b 378 393 186 125 326 192 l 524 958 l 685 958 l 585 478 b 424 311 565 385 496 307 z "},"N":{"ha":1324,"x_min":0,"x_max":0,"o":"m 165 1032 b 115 806 140 993 115 903 b 193 657 115 742 131 657 b 578 954 300 657 367 954 b 617 951 585 954 599 953 b 56 294 501 711 268 285 l 3 -57 b 642 950 256 -57 414 497 b 928 835 740 939 915 907 b 907 717 933 801 928 757 b 385 179 808 528 385 442 b 667 -72 385 3 575 -72 b 968 114 817 -72 921 49 b 1414 983 1097 289 1210 874 b 1624 1018 1488 1022 1546 1018 l 1626 1031 l 1422 1031 b 1040 851 1303 1031 1097 994 b 668 -56 901 503 936 -56 b 569 65 600 -56 569 10 b 914 685 569 229 833 526 b 721 1043 1024 901 881 1042 b 263 861 500 1044 404 861 b 174 1029 196 861 154 958 z "},"O":{"ha":1065,"x_min":0,"x_max":0,"o":"m 1004 558 b 822 411 936 490 896 457 b 794 275 819 396 813 349 b 515 -53 781 222 713 -53 b 381 272 397 -53 376 118 b 1086 806 696 288 1086 515 b 858 1046 1086 975 953 1046 b 199 328 554 1046 199 713 b 271 290 199 314 232 300 b 31 689 19 324 -87 543 b 257 696 104 781 217 779 l 261 696 b -28 822 210 806 71 950 b 201 292 -142 678 -53 372 b 515 -68 225 85 317 -68 b 1004 479 711 -68 993 179 b 1004 558 1006 514 1004 546 z m 465 442 b 749 849 458 583 533 875 b 828 433 892 832 890 696 b 381 286 699 347 535 292 b 411 557 381 329 374 415 b 839 1029 483 824 644 1029 b 1076 803 954 1029 1076 958 b 1003 596 1076 729 1049 660 b 747 883 1001 726 926 874 b 456 444 528 896 453 600 z "},"P":{"ha":896,"x_min":0,"x_max":0,"o":"m 206 1147 l 201 1153 l 42 994 b 201 850 75 940 128 889 l 68 685 b 251 439 164 667 232 556 b 231 47 265 358 249 86 l 126 90 l 36 -47 l 369 -193 b 474 -58 415 -121 489 -67 l 250 38 l 401 56 b 394 204 401 74 399 133 b 560 153 446 163 501 143 b 761 313 658 171 725 267 l 883 531 b 647 725 851 631 663 700 b 661 763 642 735 650 744 l 769 939 l 763 947 b 206 1147 546 864 110 1011 z m 357 529 b 151 764 322 633 217 743 l 215 843 b 633 768 322 789 464 758 b 578 608 596 715 564 657 b 781 399 604 519 754 522 b 560 292 753 350 646 297 b 414 692 344 276 360 494 l 400 694 z "},"Q":{"ha":958,"x_min":0,"x_max":0,"o":"m 81 199 l 239 318 b 293 694 235 429 250 561 b 343 817 308 740 325 782 b 572 582 418 747 494 671 b 551 518 594 556 581 535 b 35 35 446 456 35 203 b 156 -235 35 8 140 -225 l 722 -235 l 792 -78 l 835 7 l 825 7 b 654 -78 792 -58 729 -78 l 114 -78 b 228 81 114 -43 161 15 l 333 0 b 792 171 443 -29 663 33 b 938 838 904 289 975 622 l 706 1021 b 132 749 618 1089 214 944 b 81 199 63 583 46 336 z m 353 832 b 671 1011 442 986 563 1031 b 350 18 925 968 747 -87 b 271 121 319 26 292 64 b 593 368 376 217 510 317 b 606 581 624 388 622 564 z "},"R":{"ha":1121,"x_min":0,"x_max":0,"o":"m 0 729 b 186 810 53 790 61 808 l 333 811 l 156 657 b 32 15 165 546 199 15 l -89 13 l -92 0 l 146 0 b 304 769 424 35 307 579 l 351 811 l 796 814 b 906 674 868 818 990 739 b 683 646 850 631 839 646 b 597 646 649 644 633 646 b 367 371 517 576 367 404 b 706 -32 367 240 585 -32 b 975 125 738 -32 907 67 b 1100 283 1022 165 1063 221 l 1090 289 b 963 140 1061 242 1026 183 b 481 492 807 35 503 311 l 594 493 b 963 689 638 493 799 572 b 1086 868 1026 743 1086 793 b 1006 972 1086 904 1051 953 l 210 971 l -11 738 z "},"S":{"ha":885,"x_min":0,"x_max":0,"o":"m 394 765 b 703 650 461 668 589 650 l 757 1011 l 747 1011 b 376 1064 708 760 506 778 b 72 767 286 1004 72 892 b 742 88 72 383 742 444 b 217 186 742 -172 217 -78 b 376 406 217 282 265 353 l 367 417 l 72 261 b 333 -140 -86 68 122 -140 b 889 197 506 -140 889 -17 b 208 860 889 485 208 575 b 257 975 208 892 210 936 l 371 1051 b 394 765 325 950 349 833 z "},"T":{"ha":867,"x_min":0,"x_max":0,"o":"m 344 1050 b 326 856 357 983 364 906 b 217 817 308 833 264 817 b 103 914 171 817 44 811 l 99 915 l 29 774 b 99 617 -8 696 19 601 b 521 818 239 644 332 722 b 43 272 411 749 43 529 b 413 -32 43 100 207 -32 b 646 38 503 -32 596 -7 l 754 418 l 749 421 b 317 4 678 215 422 4 b 222 219 219 4 222 181 b 660 842 222 599 485 842 b 660 639 756 842 679 665 l 665 636 l 907 947 b 233 775 765 922 521 879 b 556 1172 478 903 553 1044 z "},"U":{"ha":967,"x_min":0,"x_max":0,"o":"m 532 1043 l 532 1051 b 196 979 450 1051 381 979 b 111 1125 135 979 67 1024 l 108 1131 b 64 903 86 1090 64 1001 b 161 753 64 839 94 753 b 350 889 225 753 289 819 b 100 199 233 678 100 432 b 240 -26 100 99 128 -26 b 676 765 461 -26 615 390 b 675 622 675 728 675 681 b 688 201 675 476 711 349 l 654 158 l 578 158 l 438 0 l 843 0 l 967 158 l 674 158 l 869 369 b 935 1121 818 668 803 1011 l 929 1129 l 679 938 b 342 136 640 521 518 121 b 190 360 219 147 190 242 b 532 1043 190 497 360 1043 z "},"V":{"ha":1207,"x_min":0,"x_max":0,"o":"m 885 828 l 864 801 l 869 799 b 1071 717 953 917 1071 806 b 444 244 1071 447 678 281 b 774 825 589 422 774 603 b 240 910 774 1108 396 1021 b 18 565 110 817 25 719 b 314 399 8 338 204 310 b 569 690 397 467 519 607 l 563 700 b 289 472 507 601 389 475 b 213 872 39 464 28 753 b 597 692 393 990 597 928 b 425 242 597 513 518 379 l 349 232 l 200 -26 b 221 -72 185 -53 201 -78 b 226 -10 244 -64 217 -26 l 376 28 b 1197 888 851 146 1163 685 b 1046 1061 1217 1006 1151 1054 z "},"W":{"ha":1568,"x_min":0,"x_max":0,"o":"m 874 417 l 1165 800 l 939 794 b 939 796 939 794 939 796 l 921 794 b 443 250 821 400 672 285 b 778 842 590 432 778 614 b 233 929 778 1131 390 1042 b 7 578 100 835 14 735 b 308 407 -3 346 197 317 b 569 706 393 476 518 621 l 561 714 b 283 482 506 615 385 485 b 204 890 29 474 18 769 b 597 707 389 1011 597 947 b 422 247 597 524 517 388 l 344 238 l 193 -26 b 214 -72 179 -51 194 -78 b 219 -8 238 -64 208 -26 l 372 31 b 864 581 647 100 788 376 l 832 479 b 1064 4 756 235 890 6 b 1385 1033 1407 1 1747 890 l 1160 686 l 1167 683 b 1393 743 1226 769 1329 799 b 938 193 1514 639 1586 160 b 874 417 889 196 758 265 z "},"X":{"ha":1046,"x_min":0,"x_max":0,"o":"m 419 475 l 81 243 b -8 -37 -139 93 -79 -37 b 442 -68 142 -37 404 536 l 450 -68 l 581 247 b 113 192 336 279 132 125 b 169 274 106 215 119 244 l 438 456 l 835 0 l 1079 0 l 589 558 l 735 657 b 924 840 854 739 933 769 b 649 1117 907 961 664 1001 b 717 1226 642 1163 675 1188 l 714 1233 l 560 1100 b 483 979 526 1072 478 1018 b 728 686 497 889 831 757 l 571 579 l 225 972 l -15 972 z "},"Y":{"ha":872,"x_min":0,"x_max":0,"o":"m 853 1025 l 563 913 b 336 338 543 460 490 324 b 388 857 60 363 224 857 l 482 1033 b 144 965 400 1033 331 965 b 60 1103 83 965 15 1007 l 57 1107 b 13 894 35 1069 13 986 b 110 754 13 835 43 754 b 325 908 174 754 264 843 b 233 186 267 810 -106 186 b 632 768 425 186 521 421 b 690 38 593 492 542 289 b 374 -193 781 -114 772 -212 b 210 -81 307 -190 153 -182 b 556 -160 300 76 343 78 l 611 156 b 379 168 529 161 481 167 b 113 -261 338 168 99 -201 b 367 -337 115 -318 214 -337 b 590 -290 469 -337 565 -318 l 804 -76 b 846 90 831 -24 846 32 b 631 633 846 301 631 419 b 853 1025 631 710 821 972 z "},"Z":{"ha":1036,"x_min":0,"x_max":0,"o":"m 253 1042 l 114 747 b 289 453 256 747 401 549 l 297 443 b 393 685 344 486 393 592 b 279 899 393 776 347 868 b 251 993 203 933 233 990 b 581 736 306 1001 365 736 b 649 738 604 736 628 736 b 296 346 569 644 418 468 b 169 554 246 403 201 471 b 185 0 17 401 -12 -10 l 300 132 b 992 35 526 -39 801 -78 b 926 501 1022 250 1031 424 b 715 572 883 533 797 558 l 618 181 l 631 176 b 869 375 643 257 693 375 b 992 231 896 375 992 378 b 403 250 929 114 635 86 l 914 835 l 1074 1042 l 1047 1044 b 683 872 933 888 918 872 b 253 1042 539 872 325 935 z m 124 214 b 81 368 54 214 51 282 b 181 240 111 322 144 279 b 124 214 156 222 136 213 z "},"a":{"ha":671,"x_min":0,"x_max":0,"o":"m 475 0 l 649 0 l 497 972 l 168 972 l 17 0 l 185 0 l 217 201 l 443 201 z m 236 333 l 331 932 l 424 333 z "},"b":{"ha":708,"x_min":0,"x_max":0,"o":"m 404 521 l 404 524 b 658 739 515 524 658 568 b 328 972 658 915 504 983 l 47 972 l 47 0 l 353 0 b 681 272 529 -1 681 82 b 404 521 681 472 515 521 z m 218 583 l 218 847 l 328 847 b 488 724 421 849 488 815 b 328 583 488 625 421 583 z m 218 125 l 218 458 l 328 458 b 510 293 421 460 510 399 b 354 125 510 186 451 124 z "},"o":{"ha":985,"x_min":0,"x_max":0,"o":"m 21 481 b 493 -11 21 186 208 -11 b 963 481 775 -11 963 186 b 493 972 963 775 775 972 b 21 481 208 972 21 775 z m 163 481 b 493 825 163 686 293 825 b 821 481 690 825 821 686 b 493 136 821 275 690 136 b 163 481 293 136 163 275 z "},"c":{"ha":982,"x_min":0,"x_max":0,"o":"m 176 481 b 507 825 176 686 307 825 b 792 533 686 825 782 729 l 935 533 b 507 972 935 793 772 972 b 35 481 222 972 35 775 b 507 -11 35 186 222 -11 b 972 338 740 -11 921 124 l 810 338 b 507 136 775 207 654 136 b 176 481 307 136 176 275 z "},"d":{"ha":693,"x_min":0,"x_max":0,"o":"m 50 0 l 250 0 b 661 567 585 -3 661 311 b 336 972 661 885 542 972 l 50 972 z m 251 125 l 221 125 l 221 847 l 322 847 b 490 519 428 849 490 814 b 251 125 490 381 476 122 z "},"e":{"ha":818,"x_min":0,"x_max":0,"o":"m 206 424 l 786 424 l 786 549 l 206 549 l 206 847 l 786 847 l 786 972 l 35 972 l 35 0 l 790 0 l 790 125 l 204 125 z "},"f":{"ha":826,"x_min":0,"x_max":0,"o":"m 206 424 l 786 424 l 786 549 l 206 549 l 206 847 l 786 847 l 786 972 l 35 972 l 35 0 b 203 0 286 0 -49 0 z "},"g":{"ha":951,"x_min":0,"x_max":0,"o":"m 168 481 b 499 825 168 686 299 825 l 908 822 l 910 972 l 499 972 b 26 481 214 972 26 775 b 478 -11 26 186 214 -11 b 765 201 622 -11 733 49 l 765 0 l 914 0 l 914 549 l 307 549 l 307 424 l 765 424 l 765 407 b 525 136 750 160 618 136 b 168 481 299 136 168 275 z "},"h":{"ha":689,"x_min":0,"x_max":0,"o":"m 206 972 l 35 972 l 35 0 l 207 0 l 207 424 l 481 424 l 481 0 l 653 0 l 651 972 l 481 972 l 481 549 l 206 549 z "},"i":{"ha":303,"x_min":0,"x_max":0,"o":"m 244 972 l 74 972 l 74 0 l 246 0 z "},"j":{"ha":415,"x_min":0,"x_max":0,"o":"m 206 242 b 32 132 203 136 131 132 l 32 0 l 171 0 b 378 238 301 0 378 72 b 378 415 378 293 378 353 l 376 794 b 376 972 376 857 376 917 l 206 972 z "},"k":{"ha":674,"x_min":0,"x_max":0,"o":"m 206 972 l 35 972 l 35 0 l 207 0 l 207 394 l 447 394 l 249 0 l 419 0 l 658 503 l 383 503 l 644 972 l 474 972 l 206 490 z "},"m":{"ha":993,"x_min":0,"x_max":0,"o":"m 646 972 l 501 40 l 356 972 l 39 972 l 39 0 l 203 0 l 213 814 l 339 0 l 668 0 l 792 794 l 792 0 l 957 0 l 968 972 z "},"n":{"ha":940,"x_min":0,"x_max":0,"o":"m 356 972 l 35 972 l 35 0 l 203 0 l 213 908 l 581 0 l 900 0 l 911 972 l 732 972 l 732 42 z "},"p":{"ha":663,"x_min":0,"x_max":0,"o":"m 206 457 l 315 457 b 646 724 514 457 646 544 b 315 972 646 919 488 972 l 35 972 l 35 0 l 204 0 z m 206 589 l 206 840 l 315 840 b 475 715 408 842 475 819 b 315 589 475 610 408 589 z "},"q":{"ha":1004,"x_min":0,"x_max":0,"o":"m 35 481 b 507 -18 35 186 222 -18 b 976 481 789 -18 976 186 b 507 982 976 775 789 982 b 35 481 222 982 35 775 z m 176 481 b 507 835 176 686 307 835 b 835 481 704 835 835 686 b 507 129 835 275 704 129 b 176 481 307 129 176 275 z m 493 -204 l 1049 -204 l 1049 -74 l 493 -74 z "},"r":{"ha":726,"x_min":0,"x_max":0,"o":"m 238 457 l 279 457 l 503 0 l 676 0 l 449 465 b 678 724 589 492 678 578 b 347 972 678 919 519 972 l 67 972 l 67 0 l 236 0 z m 238 589 l 238 840 l 347 840 b 507 715 440 842 507 819 b 347 589 507 610 440 589 z "},"l":{"ha":526,"x_min":0,"x_max":0,"o":"m 497 132 l 206 132 l 214 972 l 35 972 l 35 0 l 496 0 z "},"s":{"ha":756,"x_min":0,"x_max":0,"o":"m 551 239 b 399 139 551 157 483 139 b 203 301 289 139 204 214 l 32 301 b 394 -11 32 136 142 -11 b 718 239 603 -11 718 83 b 258 724 718 549 258 524 b 400 822 258 801 329 824 b 547 672 522 821 547 753 l 718 672 b 401 983 718 857 610 983 b 88 717 224 983 88 890 b 551 239 88 397 551 453 z "},"t":{"ha":686,"x_min":0,"x_max":0,"o":"m 21 846 l 256 846 l 256 0 l 428 0 l 426 846 l 660 846 l 660 971 l 21 971 z "},"u":{"ha":872,"x_min":0,"x_max":0,"o":"m 231 969 l 61 969 l 61 365 b 814 365 61 -128 814 -121 l 814 969 l 644 969 l 644 382 b 231 382 644 58 231 68 z "},"v":{"ha":707,"x_min":0,"x_max":0,"o":"m 490 972 l 346 40 l 200 972 l 32 972 l 183 0 l 507 0 l 658 972 z "},"x":{"ha":826,"x_min":0,"x_max":0,"o":"m 26 0 l 206 0 l 413 372 l 422 372 l 629 0 l 808 0 l 539 486 l 808 972 l 629 972 l 422 600 l 413 600 l 206 972 l 26 972 l 296 486 z "},"y":{"ha":689,"x_min":0,"x_max":0,"o":"m 667 972 l 492 972 l 342 367 l 193 972 l 18 972 l 176 331 l 256 331 l 256 0 l 426 0 l 426 331 l 506 331 z "},"z":{"ha":858,"x_min":0,"x_max":0,"o":"m 26 328 l 28 10 l 824 10 l 824 189 l 79 189 l 79 190 l 824 642 l 822 972 l 26 972 l 26 793 l 771 793 l 771 792 z "},"w":{"ha":1028,"x_min":0,"x_max":0,"o":"m 656 0 l 993 0 l 982 972 l 818 972 l 818 61 l 651 974 l 374 974 l 208 58 l 197 972 l 33 972 l 33 0 l 365 0 l 510 799 z "},"!":{"ha":258,"x_min":0,"x_max":0,"o":"m 213 972 l 42 972 l 47 246 l 206 246 z m 204 150 l 49 150 l 49 0 l 206 0 z "},"?":{"ha":503,"x_min":0,"x_max":0,"o":"m 31 676 l 396 676 b 32 514 344 557 215 514 l 32 276 b 506 775 267 276 506 540 b 276 972 506 872 443 972 b 31 676 147 972 31 872 z m 400 686 l 307 686 b 206 786 236 689 206 713 b 324 956 206 869 246 956 b 419 808 388 956 419 896 b 400 686 419 761 413 721 z m 279 150 l 124 150 l 124 0 l 281 0 z "},"@":{"ha":1256,"x_min":0,"x_max":0,"o":"m 32 347 b 674 -206 32 -12 289 -206 l 888 -204 l 888 -115 l 674 -115 b 138 371 432 -115 138 -26 b 644 883 138 668 340 883 b 1133 394 988 883 1133 735 b 999 128 1133 204 1088 128 b 888 226 908 128 888 208 l 886 650 l 600 650 b 351 393 454 650 351 538 b 617 106 351 232 450 106 b 789 240 717 106 774 154 l 806 240 l 806 221 b 996 54 806 143 863 54 b 1225 403 1153 54 1225 179 b 643 972 1225 776 1025 972 b 32 347 283 972 32 717 z m 435 393 b 600 564 435 494 497 565 l 790 563 l 790 372 b 647 192 790 271 760 192 b 435 393 521 192 435 264 z "},"#":{"ha":940,"x_min":0,"x_max":0,"o":"m 393 972 l 319 735 l 110 735 l 110 610 l 282 610 l 213 385 l 10 385 l 10 260 l 174 260 l 94 0 l 236 0 l 315 260 l 492 260 l 413 0 l 554 0 l 633 260 l 821 260 l 821 385 l 672 385 l 742 610 l 921 610 l 921 735 l 779 735 l 853 972 l 711 972 l 638 735 l 461 735 l 535 972 z m 354 385 l 424 610 l 600 610 l 531 385 z "},"%":{"ha":838,"x_min":0,"x_max":0,"o":"m 21 775 b 219 576 21 656 100 576 b 417 775 338 576 417 656 b 219 972 417 893 338 972 b 21 775 100 972 21 893 z m 624 971 l 76 0 l 185 0 l 732 971 z m 90 775 b 219 903 90 851 142 903 b 347 775 296 903 347 851 b 219 646 347 697 296 646 b 90 775 142 646 90 697 z m 417 199 b 615 0 417 79 496 0 b 813 199 733 0 813 79 b 615 396 813 317 733 396 b 417 199 496 396 417 317 z m 486 199 b 615 326 486 275 538 326 b 743 199 692 326 743 275 b 615 69 743 121 692 69 b 486 199 538 69 486 121 z "},"&":{"ha":885,"x_min":0,"x_max":0,"o":"m 76 707 b 140 531 76 650 101 590 b 32 332 81 483 32 408 b 371 -11 32 150 193 -11 b 651 56 479 -11 575 11 l 721 0 l 983 0 l 767 161 b 833 396 810 224 833 301 l 833 524 l 832 635 l 439 632 l 439 507 l 810 510 l 810 397 b 700 214 810 313 754 253 b 242 725 458 410 242 621 b 344 821 242 758 264 821 l 686 819 l 690 972 l 343 968 b 76 707 192 967 76 874 z m 239 408 b 532 149 324 318 432 228 b 371 136 479 139 422 136 b 68 246 303 136 68 142 b 239 408 68 306 183 388 z "},"\"":{"ha":381,"x_min":0,"x_max":0,"o":"m 53 694 l 161 694 l 161 1042 l 53 1042 z m 224 694 l 332 694 l 332 1042 l 224 1042 z "},"$":{"ha":665,"x_min":0,"x_max":0,"o":"m 483 301 b 347 213 483 229 424 213 b 174 357 250 213 175 279 l 21 357 b 344 79 21 210 119 79 b 632 301 529 79 632 163 b 222 732 632 576 222 554 b 349 821 222 801 286 821 b 479 688 457 819 479 758 l 632 688 b 350 964 632 851 535 964 b 71 726 192 964 71 881 b 483 301 71 442 483 492 z m 296 0 l 406 0 l 406 1042 l 296 1042 z "},"'":{"ha":214,"x_min":0,"x_max":0,"o":"m 53 694 l 161 694 l 161 1042 l 53 1042 z "},"(":{"ha":410,"x_min":0,"x_max":0,"o":"m 81 85 b 332 -215 81 -103 199 -215 l 332 -106 b 190 85 258 -106 190 -49 l 190 742 b 332 932 190 875 258 932 l 332 1042 b 81 742 199 1042 81 929 z "},")":{"ha":463,"x_min":0,"x_max":0,"o":"m 332 85 l 332 742 b 81 1042 332 929 214 1042 l 81 932 b 222 742 154 932 222 875 l 222 85 b 81 -106 222 -49 154 -106 l 81 -215 b 332 85 214 -215 332 -103 z "},"*":{"ha":393,"x_min":0,"x_max":0,"o":"m 71 635 l 157 721 l 157 585 l 235 585 l 235 721 l 321 635 l 376 689 l 275 790 l 376 892 l 321 946 l 235 860 l 235 1000 l 157 1000 l 157 860 l 71 946 l 15 892 l 117 790 l 15 689 z "},"+":{"ha":771,"x_min":0,"x_max":0,"o":"m 329 0 l 439 0 l 439 293 l 732 293 l 732 403 l 439 403 l 439 694 l 329 694 l 329 403 l 36 403 l 36 293 l 329 293 z "},",":{"ha":240,"x_min":0,"x_max":0,"o":"m 32 0 l 133 0 l 53 -140 l 125 -140 l 203 0 l 203 169 l 32 169 z "},".":{"ha":235,"x_min":0,"x_max":0,"o":"m 32 0 l 203 0 l 203 169 l 32 169 z "},"-":{"ha":683,"x_min":0,"x_max":0,"o":"m 639 293 l 639 403 l 26 403 l 26 293 z "},"/":{"ha":692,"x_min":0,"x_max":0,"o":"m 568 971 l 21 0 l 129 0 l 676 971 z "},"[":{"ha":321,"x_min":0,"x_max":0,"o":"m 42 64 b 293 -142 42 -132 176 -142 l 293 -32 b 151 64 219 -32 151 -44 l 151 836 b 293 932 151 944 219 932 l 293 1042 b 42 836 176 1042 42 1032 z "},"]":{"ha":386,"x_min":0,"x_max":0,"o":"m 332 64 l 332 836 b 81 1042 332 1032 197 1042 l 81 932 b 222 836 154 932 222 944 l 222 64 b 81 -32 222 -44 154 -32 l 81 -142 b 332 64 197 -142 332 -132 z "},"\\":{"ha":692,"x_min":0,"x_max":0,"o":"m 142 971 l 33 971 l 581 0 l 689 0 z "},"^":{"ha":651,"x_min":0,"x_max":0,"o":"m 32 603 l 150 603 l 326 964 l 503 603 l 621 603 l 432 989 l 221 989 z "},"_":{"ha":669,"x_min":0,"x_max":0,"o":"m 639 -110 l 639 0 l 26 0 l 26 -110 z "},"`":{"ha":274,"x_min":0,"x_max":0,"o":"m 179 838 l 244 838 l 100 1042 l 35 1042 z "},":":{"ha":267,"x_min":0,"x_max":0,"o":"m 46 414 l 217 414 l 217 583 l 46 583 z m 46 0 l 217 0 l 217 169 l 46 169 z "},";":{"ha":267,"x_min":0,"x_max":0,"o":"m 46 414 l 217 414 l 217 583 l 46 583 z m 47 0 l 149 0 l 68 -140 l 140 -140 l 218 0 l 218 169 l 47 169 z "},"<":{"ha":667,"x_min":0,"x_max":0,"o":"m 639 0 l 639 110 l 142 347 l 639 586 l 639 696 l 26 403 l 26 293 z "},">":{"ha":663,"x_min":0,"x_max":0,"o":"m 26 0 l 639 293 l 639 403 l 26 696 l 26 586 l 524 347 l 26 110 z "},"=":{"ha":665,"x_min":0,"x_max":0,"o":"m 639 392 l 639 501 l 26 501 l 26 392 z m 639 203 l 639 313 l 26 313 l 26 203 z "},"{":{"ha":464,"x_min":0,"x_max":0,"o":"m 0 363 l 81 363 l 81 85 b 332 -215 81 -103 199 -215 l 332 -106 b 190 85 258 -106 190 -49 l 190 322 b 99 415 190 382 138 414 l 99 436 b 190 522 138 436 190 458 l 190 742 b 332 932 190 875 258 932 l 332 1042 b 81 742 199 1042 81 929 l 81 485 l 0 485 z "},"}":{"ha":464,"x_min":0,"x_max":0,"o":"m 428 363 l 428 485 l 347 485 l 347 742 b 96 1042 347 929 229 1042 l 96 932 b 238 742 169 932 238 875 l 238 522 b 329 436 238 458 290 436 l 329 415 b 238 322 290 414 238 382 l 238 85 b 96 -106 238 -49 169 -106 l 96 -215 b 347 85 229 -215 347 -103 l 347 363 z "},"|":{"ha":233,"x_min":0,"x_max":0,"o":"m 68 0 l 167 0 l 167 1011 l 68 1011 z "},"~":{"ha":811,"x_min":0,"x_max":0,"o":"m 56 297 b 768 376 161 500 660 176 l 768 499 b 56 419 660 299 161 622 z "},"´":{"ha":257,"x_min":0,"x_max":0,"o":"m 100 838 l 244 1042 l 179 1042 l 35 838 z "},"ˆ":{"ha":388,"x_min":0,"x_max":0,"o":"m 83 838 l 196 996 l 307 838 l 372 838 l 228 1042 l 163 1042 l 18 838 z "},"ˇ":{"ha":392,"x_min":0,"x_max":0,"o":"m 83 1042 l 18 1042 l 163 838 l 228 838 l 372 1042 l 307 1042 l 196 883 z "},"˜":{"ha":317,"x_min":0,"x_max":0,"o":"m 36 851 b 276 879 72 919 242 808 l 276 919 b 36 892 242 851 72 961 z "},"¨":{"ha":292,"x_min":0,"x_max":0,"o":"m 26 919 b 79 867 26 888 47 867 b 132 919 111 867 132 888 b 79 972 132 951 111 972 b 26 919 47 972 26 951 z m 160 919 b 213 867 160 888 181 867 b 265 919 244 867 265 888 b 213 972 265 951 244 972 b 160 919 181 972 160 951 z "},"˚":{"ha":293,"x_min":0,"x_max":0,"o":"m 35 851 b 149 736 35 782 81 736 b 263 851 217 736 263 782 b 149 965 263 919 217 965 b 35 851 81 965 35 919 z m 71 851 b 149 929 71 899 101 929 b 226 851 196 929 226 899 b 149 772 226 803 196 772 b 71 851 101 772 71 803 z "},"˘":{"ha":386,"x_min":0,"x_max":0,"o":"m 25 1042 b 190 838 24 956 64 838 l 215 838 b 372 1042 342 838 374 956 l 307 1042 b 199 883 307 964 290 883 b 90 1042 110 883 90 964 z "},"¸":{"ha":276,"x_min":0,"x_max":0,"o":"m 192 -101 b 144 -124 192 -118 171 -124 b 83 -72 110 -124 83 -100 l 29 -72 b 143 -169 29 -124 64 -169 b 243 -104 207 -169 243 -140 b 138 11 243 -35 104 -40 l 92 13 b 192 -101 81 -49 192 -62 z "},"À":{"ha":942,"x_min":0,"x_max":0,"o":"m 818 825 b 694 1042 842 982 764 1042 b 214 867 546 1042 410 867 b 124 1013 149 867 78 911 l 121 1017 b 74 792 97 978 74 889 b 176 644 74 729 107 644 b 672 1024 317 644 565 1025 b 699 992 689 1024 699 1017 b -17 182 693 788 -17 508 b 217 -44 -17 76 54 -44 b 625 678 325 -44 481 240 l 640 678 l 438 104 b 647 -28 475 33 569 -28 b 903 393 840 -28 1033 315 b 664 243 849 425 726 332 l 669 238 b 731 269 696 269 708 272 b 663 -7 803 263 760 -33 b 650 228 621 4 613 79 b 818 825 685 361 800 710 z m 665 869 b 278 178 576 571 465 178 b 193 282 218 178 190 219 b 658 876 204 535 428 636 z m 533 1042 l 599 1042 l 454 1246 l 389 1246 z "},"Á":{"ha":942,"x_min":0,"x_max":0,"o":"m 818 825 b 694 1042 842 982 764 1042 b 214 867 546 1042 410 867 b 124 1013 149 867 78 911 l 121 1017 b 74 792 97 978 74 889 b 176 644 74 729 107 644 b 672 1024 317 644 565 1025 b 699 992 689 1024 699 1017 b -17 182 693 788 -17 508 b 217 -44 -17 76 54 -44 b 625 678 325 -44 481 240 l 640 678 l 438 104 b 647 -28 475 33 569 -28 b 903 393 840 -28 1033 315 b 664 243 849 425 726 332 l 669 238 b 731 269 696 269 708 272 b 663 -7 803 263 760 -33 b 650 228 621 4 613 79 b 818 825 685 361 800 710 z m 665 869 b 278 178 576 571 465 178 b 193 282 218 178 190 219 b 658 876 204 535 428 636 z m 454 1042 l 599 1246 l 533 1246 l 389 1042 z "},"Â":{"ha":942,"x_min":0,"x_max":0,"o":"m 818 825 b 694 1042 842 982 764 1042 b 214 867 546 1042 410 867 b 124 1013 149 867 78 911 l 121 1017 b 74 792 97 978 74 889 b 176 644 74 729 107 644 b 672 1024 317 644 565 1025 b 699 992 689 1024 699 1017 b -17 182 693 788 -17 508 b 217 -44 -17 76 54 -44 b 625 678 325 -44 481 240 l 640 678 l 438 104 b 647 -28 475 33 569 -28 b 903 393 840 -28 1033 315 b 664 243 849 425 726 332 l 669 238 b 731 269 696 269 708 272 b 663 -7 803 263 760 -33 b 650 228 621 4 613 79 b 818 825 685 361 800 710 z m 665 869 b 278 178 576 571 465 178 b 193 282 218 178 190 219 b 658 876 204 535 428 636 z m 360 1042 l 472 1200 l 583 1042 l 649 1042 l 504 1246 l 439 1246 l 294 1042 z "},"Ã":{"ha":942,"x_min":0,"x_max":0,"o":"m 818 825 b 694 1042 842 982 764 1042 b 214 867 546 1042 410 867 b 124 1013 149 867 78 911 l 121 1017 b 74 792 97 978 74 889 b 176 644 74 729 107 644 b 672 1024 317 644 565 1025 b 699 992 689 1024 699 1017 b -17 182 693 788 -17 508 b 217 -44 -17 76 54 -44 b 625 678 325 -44 481 240 l 640 678 l 438 104 b 647 -28 475 33 569 -28 b 903 393 840 -28 1033 315 b 664 243 849 425 726 332 l 669 238 b 731 269 696 269 708 272 b 663 -7 803 263 760 -33 b 650 228 621 4 613 79 b 818 825 685 361 800 710 z m 665 869 b 278 178 576 571 465 178 b 193 282 218 178 190 219 b 658 876 204 535 428 636 z m 349 1057 b 589 1085 385 1125 554 1014 l 589 1125 b 349 1097 554 1057 385 1167 z "},"Ä":{"ha":942,"x_min":0,"x_max":0,"o":"m 818 825 b 694 1042 842 982 764 1042 b 214 867 546 1042 410 867 b 124 1013 149 867 78 911 l 121 1017 b 74 792 97 978 74 889 b 176 644 74 729 107 644 b 672 1024 317 644 565 1025 b 699 992 689 1024 699 1017 b -17 182 693 788 -17 508 b 217 -44 -17 76 54 -44 b 625 678 325 -44 481 240 l 640 678 l 438 104 b 647 -28 475 33 569 -28 b 903 393 840 -28 1033 315 b 664 243 849 425 726 332 l 669 238 b 731 269 696 269 708 272 b 663 -7 803 263 760 -33 b 650 228 621 4 613 79 b 818 825 685 361 800 710 z m 665 869 b 278 178 576 571 465 178 b 193 282 218 178 190 219 b 658 876 204 535 428 636 z m 351 1097 b 404 1044 351 1065 372 1044 b 457 1097 436 1044 457 1065 b 404 1150 457 1129 436 1150 b 351 1097 372 1150 351 1129 z m 485 1097 b 538 1044 485 1065 506 1044 b 590 1097 569 1044 590 1065 b 538 1150 590 1129 569 1150 b 485 1097 506 1150 485 1129 z "},"Å":{"ha":942,"x_min":0,"x_max":0,"o":"m 818 825 b 694 1042 842 982 764 1042 b 214 867 546 1042 410 867 b 124 1013 149 867 78 911 l 121 1017 b 74 792 97 978 74 889 b 176 644 74 729 107 644 b 672 1024 317 644 565 1025 b 699 992 689 1024 699 1017 b -17 182 693 788 -17 508 b 217 -44 -17 76 54 -44 b 625 678 325 -44 481 240 l 640 678 l 438 104 b 647 -28 475 33 569 -28 b 903 393 840 -28 1033 315 b 664 243 849 425 726 332 l 669 238 b 731 269 696 269 708 272 b 663 -7 803 263 760 -33 b 650 228 621 4 613 79 b 818 825 685 361 800 710 z m 665 869 b 278 178 576 571 465 178 b 193 282 218 178 190 219 b 658 876 204 535 428 636 z m 358 1157 b 472 1042 358 1088 404 1042 b 586 1157 540 1042 586 1088 b 472 1271 586 1225 540 1271 b 358 1157 404 1271 358 1225 z m 394 1157 b 472 1235 394 1204 425 1235 b 550 1157 519 1235 550 1204 b 472 1078 550 1108 519 1078 b 394 1157 425 1078 394 1108 z "},"Ç":{"ha":733,"x_min":0,"x_max":0,"o":"m 658 1000 b 574 840 678 932 638 840 b 200 1031 439 840 392 1032 b 15 814 47 1031 15 896 l 15 415 b 464 0 15 167 208 0 l 706 0 l 706 385 l 694 385 b 463 22 694 126 535 22 b 210 364 315 22 210 185 l 210 797 b 338 949 217 919 304 949 b 640 644 478 949 468 644 b 714 788 699 644 714 725 b 667 1003 714 879 690 964 z m 479 -97 b 432 -119 479 -114 458 -119 b 371 -68 397 -119 371 -96 l 317 -68 b 431 -165 317 -119 351 -165 b 531 -100 494 -165 531 -136 b 425 15 531 -31 392 -36 l 379 17 b 479 -97 368 -44 479 -58 z "},"È":{"ha":840,"x_min":0,"x_max":0,"o":"m 735 1022 b 646 860 769 950 710 860 b 206 1035 508 860 400 1036 b 19 828 51 1035 19 899 b 511 553 19 572 439 556 l 511 544 b 4 279 432 544 4 572 b 789 113 4 -89 701 -125 b 422 426 878 356 517 546 b 531 168 383 378 457 243 l 538 172 b 515 238 511 203 510 215 b 772 115 536 311 844 274 b 292 233 708 -25 443 -4 b 428 521 210 363 285 524 b 640 544 499 519 640 471 b 207 754 640 660 279 465 b 357 951 163 931 310 951 b 714 663 550 951 610 663 b 788 807 772 663 788 744 b 740 1024 788 900 764 986 z m 497 1042 l 563 1042 l 418 1246 l 353 1246 z "},"É":{"ha":840,"x_min":0,"x_max":0,"o":"m 735 1022 b 646 860 769 950 710 860 b 206 1035 508 860 400 1036 b 19 828 51 1035 19 899 b 511 553 19 572 439 556 l 511 544 b 4 279 432 544 4 572 b 789 113 4 -89 701 -125 b 422 426 878 356 517 546 b 531 168 383 378 457 243 l 538 172 b 515 238 511 203 510 215 b 772 115 536 311 844 274 b 292 233 708 -25 443 -4 b 428 521 210 363 285 524 b 640 544 499 519 640 471 b 207 754 640 660 279 465 b 357 951 163 931 310 951 b 714 663 550 951 610 663 b 788 807 772 663 788 744 b 740 1024 788 900 764 986 z m 418 1042 l 563 1246 l 497 1246 l 353 1042 z "},"Ê":{"ha":840,"x_min":0,"x_max":0,"o":"m 735 1022 b 646 860 769 950 710 860 b 206 1035 508 860 400 1036 b 19 828 51 1035 19 899 b 511 553 19 572 439 556 l 511 544 b 4 279 432 544 4 572 b 789 113 4 -89 701 -125 b 422 426 878 356 517 546 b 531 168 383 378 457 243 l 538 172 b 515 238 511 203 510 215 b 772 115 536 311 844 274 b 292 233 708 -25 443 -4 b 428 521 210 363 285 524 b 640 544 499 519 640 471 b 207 754 640 660 279 465 b 357 951 163 931 310 951 b 714 663 550 951 610 663 b 788 807 772 663 788 744 b 740 1024 788 900 764 986 z m 324 1042 l 436 1200 l 547 1042 l 613 1042 l 468 1246 l 403 1246 l 258 1042 z "},"Ë":{"ha":840,"x_min":0,"x_max":0,"o":"m 735 1022 b 646 860 769 950 710 860 b 206 1035 508 860 400 1036 b 19 828 51 1035 19 899 b 511 553 19 572 439 556 l 511 544 b 4 279 432 544 4 572 b 789 113 4 -89 701 -125 b 422 426 878 356 517 546 b 531 168 383 378 457 243 l 538 172 b 515 238 511 203 510 215 b 772 115 536 311 844 274 b 292 233 708 -25 443 -4 b 428 521 210 363 285 524 b 640 544 499 519 640 471 b 207 754 640 660 279 465 b 357 951 163 931 310 951 b 714 663 550 951 610 663 b 788 807 772 663 788 744 b 740 1024 788 900 764 986 z m 315 1097 b 368 1044 315 1065 336 1044 b 421 1097 400 1044 421 1065 b 368 1150 421 1129 400 1150 b 315 1097 336 1150 315 1129 z m 449 1097 b 501 1044 449 1065 469 1044 b 554 1097 533 1044 554 1065 b 501 1150 554 1129 533 1150 b 449 1097 469 1150 449 1129 z "},"Ì":{"ha":554,"x_min":0,"x_max":0,"o":"m 282 -46 l 560 240 l 546 251 b 413 157 515 210 468 157 l 242 260 l 413 450 l 413 768 l 514 893 l 271 1043 l -7 757 l 7 746 b 136 840 44 797 86 840 b 193 833 156 840 175 838 l 193 294 l 39 104 z m 332 1079 l 397 1079 l 253 1283 l 188 1283 z "},"Í":{"ha":554,"x_min":0,"x_max":0,"o":"m 282 -46 l 560 240 l 546 251 b 413 157 515 210 468 157 l 242 260 l 413 450 l 413 768 l 514 893 l 271 1043 l -7 757 l 7 746 b 136 840 44 797 86 840 b 193 833 156 840 175 838 l 193 294 l 39 104 z m 253 1079 l 397 1283 l 332 1283 l 188 1079 z "},"Î":{"ha":554,"x_min":0,"x_max":0,"o":"m 282 -46 l 560 240 l 546 251 b 413 157 515 210 468 157 l 242 260 l 413 450 l 413 768 l 514 893 l 271 1043 l -7 757 l 7 746 b 136 840 44 797 86 840 b 193 833 156 840 175 838 l 193 294 l 39 104 z m 158 1079 l 271 1238 l 382 1079 l 447 1079 l 303 1283 l 238 1283 l 93 1079 z "},"Ï":{"ha":554,"x_min":0,"x_max":0,"o":"m 282 -46 l 560 240 l 546 251 b 413 157 515 210 468 157 l 242 260 l 413 450 l 413 768 l 514 893 l 271 1043 l -7 757 l 7 746 b 136 840 44 797 86 840 b 193 833 156 840 175 838 l 193 294 l 39 104 z m 150 1135 b 203 1082 150 1103 171 1082 b 256 1135 235 1082 256 1103 b 203 1188 256 1167 235 1188 b 150 1135 171 1188 150 1167 z m 283 1135 b 336 1082 283 1103 304 1082 b 389 1135 368 1082 389 1103 b 336 1188 389 1167 368 1188 b 283 1135 304 1188 283 1167 z "},"Ñ":{"ha":1265,"x_min":0,"x_max":0,"o":"m 107 1032 b 57 806 82 993 57 903 b 135 657 57 742 72 657 b 519 954 242 657 308 954 b 558 951 526 954 540 953 b -3 294 443 711 210 285 l -56 -57 b 583 950 197 -57 356 497 b 869 835 682 939 857 907 b 849 717 875 801 869 757 b 326 179 750 528 326 442 b 608 -72 326 3 517 -72 b 910 114 758 -72 863 49 b 1356 983 1039 289 1151 874 b 1565 1018 1429 1022 1488 1018 l 1568 1031 l 1364 1031 b 982 851 1244 1031 1039 994 b 610 -56 843 503 878 -56 b 511 65 542 -56 511 10 b 856 685 511 229 775 526 b 663 1043 965 901 822 1042 b 204 861 442 1044 346 861 b 115 1029 138 861 96 958 z m 721 1057 b 961 1085 757 1125 926 1014 l 961 1125 b 721 1097 926 1057 757 1167 z "},"Ò":{"ha":1065,"x_min":0,"x_max":0,"o":"m 1004 558 b 822 411 936 490 896 457 b 794 275 819 396 813 349 b 515 -53 781 222 713 -53 b 381 272 397 -53 376 118 b 1086 806 696 288 1086 515 b 858 1046 1086 975 953 1046 b 199 328 554 1046 199 713 b 271 290 199 314 232 300 b 31 689 19 324 -87 543 b 257 696 104 781 217 779 l 261 696 b -28 822 210 806 71 950 b 201 292 -142 678 -53 372 b 515 -68 225 85 317 -68 b 1004 479 711 -68 993 179 b 1004 558 1006 514 1004 546 z m 465 442 b 749 849 458 583 533 875 b 828 433 892 832 890 696 b 381 286 699 347 535 292 b 411 557 381 329 374 415 b 839 1029 483 824 644 1029 b 1076 803 954 1029 1076 958 b 1003 596 1076 729 1049 660 b 747 883 1001 726 926 874 b 456 444 528 896 453 600 z m 665 1085 l 731 1085 l 586 1289 l 521 1289 z "},"Ó":{"ha":1065,"x_min":0,"x_max":0,"o":"m 1004 558 b 822 411 936 490 896 457 b 794 275 819 396 813 349 b 515 -53 781 222 713 -53 b 381 272 397 -53 376 118 b 1086 806 696 288 1086 515 b 858 1046 1086 975 953 1046 b 199 328 554 1046 199 713 b 271 290 199 314 232 300 b 31 689 19 324 -87 543 b 257 696 104 781 217 779 l 261 696 b -28 822 210 806 71 950 b 201 292 -142 678 -53 372 b 515 -68 225 85 317 -68 b 1004 479 711 -68 993 179 b 1004 558 1006 514 1004 546 z m 465 442 b 749 849 458 583 533 875 b 828 433 892 832 890 696 b 381 286 699 347 535 292 b 411 557 381 329 374 415 b 839 1029 483 824 644 1029 b 1076 803 954 1029 1076 958 b 1003 596 1076 729 1049 660 b 747 883 1001 726 926 874 b 456 444 528 896 453 600 z m 586 1085 l 731 1289 l 665 1289 l 521 1085 z "},"Ô":{"ha":1065,"x_min":0,"x_max":0,"o":"m 1004 558 b 822 411 936 490 896 457 b 794 275 819 396 813 349 b 515 -53 781 222 713 -53 b 381 272 397 -53 376 118 b 1086 806 696 288 1086 515 b 858 1046 1086 975 953 1046 b 199 328 554 1046 199 713 b 271 290 199 314 232 300 b 31 689 19 324 -87 543 b 257 696 104 781 217 779 l 261 696 b -28 822 210 806 71 950 b 201 292 -142 678 -53 372 b 515 -68 225 85 317 -68 b 1004 479 711 -68 993 179 b 1004 558 1006 514 1004 546 z m 465 442 b 749 849 458 583 533 875 b 828 433 892 832 890 696 b 381 286 699 347 535 292 b 411 557 381 329 374 415 b 839 1029 483 824 644 1029 b 1076 803 954 1029 1076 958 b 1003 596 1076 729 1049 660 b 747 883 1001 726 926 874 b 456 444 528 896 453 600 z m 492 1085 l 604 1243 l 715 1085 l 781 1085 l 636 1289 l 571 1289 l 426 1085 z "},"Õ":{"ha":1065,"x_min":0,"x_max":0,"o":"m 1004 558 b 822 411 936 490 896 457 b 794 275 819 396 813 349 b 515 -53 781 222 713 -53 b 381 272 397 -53 376 118 b 1086 806 696 288 1086 515 b 858 1046 1086 975 953 1046 b 199 328 554 1046 199 713 b 271 290 199 314 232 300 b 31 689 19 324 -87 543 b 257 696 104 781 217 779 l 261 696 b -28 822 210 806 71 950 b 201 292 -142 678 -53 372 b 515 -68 225 85 317 -68 b 1004 479 711 -68 993 179 b 1004 558 1006 514 1004 546 z m 465 442 b 749 849 458 583 533 875 b 828 433 892 832 890 696 b 381 286 699 347 535 292 b 411 557 381 329 374 415 b 839 1029 483 824 644 1029 b 1076 803 954 1029 1076 958 b 1003 596 1076 729 1049 660 b 747 883 1001 726 926 874 b 456 444 528 896 453 600 z m 481 1100 b 721 1128 517 1168 686 1057 l 721 1168 b 481 1140 686 1100 517 1210 z "},"Ö":{"ha":1065,"x_min":0,"x_max":0,"o":"m 1004 558 b 822 411 936 490 896 457 b 794 275 819 396 813 349 b 515 -53 781 222 713 -53 b 381 272 397 -53 376 118 b 1086 806 696 288 1086 515 b 858 1046 1086 975 953 1046 b 199 328 554 1046 199 713 b 271 290 199 314 232 300 b 31 689 19 324 -87 543 b 257 696 104 781 217 779 l 261 696 b -28 822 210 806 71 950 b 201 292 -142 678 -53 372 b 515 -68 225 85 317 -68 b 1004 479 711 -68 993 179 b 1004 558 1006 514 1004 546 z m 465 442 b 749 849 458 583 533 875 b 828 433 892 832 890 696 b 381 286 699 347 535 292 b 411 557 381 329 374 415 b 839 1029 483 824 644 1029 b 1076 803 954 1029 1076 958 b 1003 596 1076 729 1049 660 b 747 883 1001 726 926 874 b 456 444 528 896 453 600 z m 483 1140 b 536 1088 483 1108 504 1088 b 589 1140 568 1088 589 1108 b 536 1193 589 1172 568 1193 b 483 1140 504 1193 483 1172 z m 617 1140 b 669 1088 617 1108 638 1088 b 722 1140 701 1088 722 1108 b 669 1193 722 1172 701 1193 b 617 1140 638 1193 617 1172 z "},"Ù":{"ha":967,"x_min":0,"x_max":0,"o":"m 532 1043 l 532 1051 b 196 979 450 1051 381 979 b 111 1125 135 979 67 1024 l 108 1131 b 64 903 86 1090 64 1001 b 161 753 64 839 94 753 b 350 889 225 753 289 819 b 100 199 233 678 100 432 b 240 -26 100 99 128 -26 b 676 765 461 -26 615 390 b 675 622 675 728 675 681 b 688 201 675 476 711 349 l 654 158 l 578 158 l 438 0 l 843 0 l 967 158 l 674 158 l 869 369 b 935 1121 818 668 803 1011 l 929 1129 l 679 938 b 342 136 640 521 518 121 b 190 360 219 147 190 242 b 532 1043 190 497 360 1043 z m 576 1097 l 642 1097 l 497 1301 l 432 1301 z "},"Ú":{"ha":967,"x_min":0,"x_max":0,"o":"m 532 1043 l 532 1051 b 196 979 450 1051 381 979 b 111 1125 135 979 67 1024 l 108 1131 b 64 903 86 1090 64 1001 b 161 753 64 839 94 753 b 350 889 225 753 289 819 b 100 199 233 678 100 432 b 240 -26 100 99 128 -26 b 676 765 461 -26 615 390 b 675 622 675 728 675 681 b 688 201 675 476 711 349 l 654 158 l 578 158 l 438 0 l 843 0 l 967 158 l 674 158 l 869 369 b 935 1121 818 668 803 1011 l 929 1129 l 679 938 b 342 136 640 521 518 121 b 190 360 219 147 190 242 b 532 1043 190 497 360 1043 z m 497 1097 l 642 1301 l 576 1301 l 432 1097 z "},"Û":{"ha":967,"x_min":0,"x_max":0,"o":"m 532 1043 l 532 1051 b 196 979 450 1051 381 979 b 111 1125 135 979 67 1024 l 108 1131 b 64 903 86 1090 64 1001 b 161 753 64 839 94 753 b 350 889 225 753 289 819 b 100 199 233 678 100 432 b 240 -26 100 99 128 -26 b 676 765 461 -26 615 390 b 675 622 675 728 675 681 b 688 201 675 476 711 349 l 654 158 l 578 158 l 438 0 l 843 0 l 967 158 l 674 158 l 869 369 b 935 1121 818 668 803 1011 l 929 1129 l 679 938 b 342 136 640 521 518 121 b 190 360 219 147 190 242 b 532 1043 190 497 360 1043 z m 403 1097 l 515 1256 l 626 1097 l 692 1097 l 547 1301 l 482 1301 l 338 1097 z "},"Ü":{"ha":967,"x_min":0,"x_max":0,"o":"m 532 1043 l 532 1051 b 196 979 450 1051 381 979 b 111 1125 135 979 67 1024 l 108 1131 b 64 903 86 1090 64 1001 b 161 753 64 839 94 753 b 350 889 225 753 289 819 b 100 199 233 678 100 432 b 240 -26 100 99 128 -26 b 676 765 461 -26 615 390 b 675 622 675 728 675 681 b 688 201 675 476 711 349 l 654 158 l 578 158 l 438 0 l 843 0 l 967 158 l 674 158 l 869 369 b 935 1121 818 668 803 1011 l 929 1129 l 679 938 b 342 136 640 521 518 121 b 190 360 219 147 190 242 b 532 1043 190 497 360 1043 z m 394 1153 b 447 1100 394 1121 415 1100 b 500 1153 479 1100 500 1121 b 447 1206 500 1185 479 1206 b 394 1153 415 1206 394 1185 z m 528 1153 b 581 1100 528 1121 549 1100 b 633 1153 613 1100 633 1121 b 581 1206 633 1185 613 1206 b 528 1153 549 1206 528 1185 z "},"à":{"ha":671,"x_min":0,"x_max":0,"o":"m 468 0 l 642 0 l 490 972 l 161 972 l 10 0 l 178 0 l 210 201 l 436 201 z m 229 333 l 324 932 l 417 333 z m 385 1042 l 450 1042 l 306 1246 l 240 1246 z "},"á":{"ha":671,"x_min":0,"x_max":0,"o":"m 468 0 l 642 0 l 490 972 l 161 972 l 10 0 l 178 0 l 210 201 l 436 201 z m 229 333 l 324 932 l 417 333 z m 306 1042 l 450 1246 l 385 1246 l 240 1042 z "},"â":{"ha":671,"x_min":0,"x_max":0,"o":"m 468 0 l 642 0 l 490 972 l 161 972 l 10 0 l 178 0 l 210 201 l 436 201 z m 229 333 l 324 932 l 417 333 z m 211 1042 l 324 1200 l 435 1042 l 500 1042 l 356 1246 l 290 1246 l 146 1042 z "},"ã":{"ha":671,"x_min":0,"x_max":0,"o":"m 468 0 l 642 0 l 490 972 l 161 972 l 10 0 l 178 0 l 210 201 l 436 201 z m 229 333 l 324 932 l 417 333 z m 200 1057 b 440 1085 236 1125 406 1014 l 440 1125 b 200 1097 406 1057 236 1167 z "},"ä":{"ha":671,"x_min":0,"x_max":0,"o":"m 468 0 l 642 0 l 490 972 l 161 972 l 10 0 l 178 0 l 210 201 l 436 201 z m 229 333 l 324 932 l 417 333 z m 203 1097 b 256 1044 203 1065 224 1044 b 308 1097 288 1044 308 1065 b 256 1150 308 1129 288 1150 b 203 1097 224 1150 203 1129 z m 336 1097 b 389 1044 336 1065 357 1044 b 442 1097 421 1044 442 1065 b 389 1150 442 1129 421 1150 b 336 1097 357 1150 336 1129 z "},"å":{"ha":671,"x_min":0,"x_max":0,"o":"m 468 0 l 642 0 l 490 972 l 161 972 l 10 0 l 178 0 l 210 201 l 436 201 z m 229 333 l 324 932 l 417 333 z m 210 1157 b 324 1042 210 1088 256 1042 b 438 1157 392 1042 438 1088 b 324 1271 438 1225 392 1271 b 210 1157 256 1271 210 1225 z m 246 1157 b 324 1235 246 1204 276 1235 b 401 1157 371 1235 401 1204 b 324 1078 401 1108 371 1078 b 246 1157 276 1078 246 1108 z "},"Ý":{"ha":872,"x_min":0,"x_max":0,"o":"m 853 1025 l 563 913 b 336 338 543 460 490 324 b 388 857 60 363 224 857 l 482 1033 b 144 965 400 1033 331 965 b 60 1103 83 965 15 1007 l 57 1107 b 13 894 35 1069 13 986 b 110 754 13 835 43 754 b 325 908 174 754 264 843 b 233 186 267 810 -106 186 b 632 768 425 186 521 421 b 690 38 593 492 542 289 b 374 -193 781 -114 772 -212 b 210 -81 307 -190 153 -182 b 556 -160 300 76 343 78 l 611 156 b 379 168 529 161 481 167 b 113 -261 338 168 99 -201 b 367 -337 115 -318 214 -337 b 590 -290 469 -337 565 -318 l 804 -76 b 846 90 831 -24 846 32 b 631 633 846 301 631 419 b 853 1025 631 710 821 972 z m 418 1094 l 563 1299 l 497 1299 l 353 1094 z "},"ç":{"ha":982,"x_min":0,"x_max":0,"o":"m 176 481 b 507 825 176 686 307 825 b 792 533 686 825 782 729 l 935 533 b 507 972 935 793 772 972 b 35 481 222 972 35 775 b 507 -11 35 186 222 -11 b 972 338 740 -11 921 124 l 810 338 b 507 136 775 207 654 136 b 176 481 307 136 176 275 z m 547 -101 b 500 -124 547 -118 526 -124 b 439 -72 465 -124 439 -100 l 385 -72 b 499 -169 385 -124 419 -169 b 599 -104 563 -169 599 -140 b 493 11 599 -35 460 -40 l 447 13 b 547 -101 436 -49 547 -62 z "},"è":{"ha":818,"x_min":0,"x_max":0,"o":"m 206 424 l 786 424 l 786 549 l 206 549 l 206 847 l 786 847 l 786 972 l 35 972 l 35 0 l 790 0 l 790 125 l 204 125 z m 517 1042 l 582 1042 l 438 1246 l 372 1246 z "},"é":{"ha":818,"x_min":0,"x_max":0,"o":"m 206 424 l 786 424 l 786 549 l 206 549 l 206 847 l 786 847 l 786 972 l 35 972 l 35 0 l 790 0 l 790 125 l 204 125 z m 438 1042 l 582 1246 l 517 1246 l 372 1042 z "},"ê":{"ha":818,"x_min":0,"x_max":0,"o":"m 206 424 l 786 424 l 786 549 l 206 549 l 206 847 l 786 847 l 786 972 l 35 972 l 35 0 l 790 0 l 790 125 l 204 125 z m 343 1042 l 456 1200 l 567 1042 l 632 1042 l 488 1246 l 422 1246 l 278 1042 z "},"ë":{"ha":818,"x_min":0,"x_max":0,"o":"m 206 424 l 786 424 l 786 549 l 206 549 l 206 847 l 786 847 l 786 972 l 35 972 l 35 0 l 790 0 l 790 125 l 204 125 z m 335 1097 b 388 1044 335 1065 356 1044 b 440 1097 419 1044 440 1065 b 388 1150 440 1129 419 1150 b 335 1097 356 1150 335 1129 z m 468 1097 b 521 1044 468 1065 489 1044 b 574 1097 553 1044 574 1065 b 521 1150 574 1129 553 1150 b 468 1097 489 1150 468 1129 z "},"ì":{"ha":303,"x_min":0,"x_max":0,"o":"m 244 972 l 74 972 l 74 0 l 246 0 z m 207 1042 l 272 1042 l 128 1246 l 63 1246 z "},"í":{"ha":303,"x_min":0,"x_max":0,"o":"m 244 972 l 74 972 l 74 0 l 246 0 z m 128 1042 l 272 1246 l 207 1246 l 63 1042 z "},"î":{"ha":303,"x_min":0,"x_max":0,"o":"m 244 972 l 74 972 l 74 0 l 246 0 z m 33 1042 l 146 1200 l 257 1042 l 322 1042 l 178 1246 l 113 1246 l -32 1042 z "},"ï":{"ha":303,"x_min":0,"x_max":0,"o":"m 244 972 l 74 972 l 74 0 l 246 0 z m 25 1097 b 78 1044 25 1065 46 1044 b 131 1097 110 1044 131 1065 b 78 1150 131 1129 110 1150 b 25 1097 46 1150 25 1129 z m 158 1097 b 211 1044 158 1065 179 1044 b 264 1097 243 1044 264 1065 b 211 1150 264 1129 243 1150 b 158 1097 179 1150 158 1129 z "},"ñ":{"ha":940,"x_min":0,"x_max":0,"o":"m 356 972 l 35 972 l 35 0 l 203 0 l 213 908 l 581 0 l 900 0 l 911 972 l 732 972 l 732 42 z m 350 1057 b 590 1085 386 1125 556 1014 l 590 1125 b 350 1097 556 1057 386 1167 z "},"ò":{"ha":985,"x_min":0,"x_max":0,"o":"m 21 481 b 493 -11 21 186 208 -11 b 963 481 775 -11 963 186 b 493 972 963 775 775 972 b 21 481 208 972 21 775 z m 163 481 b 493 825 163 686 293 825 b 821 481 690 825 821 686 b 493 136 821 275 690 136 b 163 481 293 136 163 275 z m 558 1042 l 624 1042 l 479 1246 l 414 1246 z "},"ó":{"ha":985,"x_min":0,"x_max":0,"o":"m 21 481 b 493 -11 21 186 208 -11 b 963 481 775 -11 963 186 b 493 972 963 775 775 972 b 21 481 208 972 21 775 z m 163 481 b 493 825 163 686 293 825 b 821 481 690 825 821 686 b 493 136 821 275 690 136 b 163 481 293 136 163 275 z m 479 1042 l 624 1246 l 558 1246 l 414 1042 z "},"ô":{"ha":985,"x_min":0,"x_max":0,"o":"m 21 481 b 493 -11 21 186 208 -11 b 963 481 775 -11 963 186 b 493 972 963 775 775 972 b 21 481 208 972 21 775 z m 163 481 b 493 825 163 686 293 825 b 821 481 690 825 821 686 b 493 136 821 275 690 136 b 163 481 293 136 163 275 z m 385 1042 l 497 1200 l 608 1042 l 674 1042 l 529 1246 l 464 1246 l 319 1042 z "},"õ":{"ha":985,"x_min":0,"x_max":0,"o":"m 21 481 b 493 -11 21 186 208 -11 b 963 481 775 -11 963 186 b 493 972 963 775 775 972 b 21 481 208 972 21 775 z m 163 481 b 493 825 163 686 293 825 b 821 481 690 825 821 686 b 493 136 821 275 690 136 b 163 481 293 136 163 275 z m 374 1057 b 614 1085 410 1125 579 1014 l 614 1125 b 374 1097 579 1057 410 1167 z "},"ö":{"ha":985,"x_min":0,"x_max":0,"o":"m 21 481 b 493 -11 21 186 208 -11 b 963 481 775 -11 963 186 b 493 972 963 775 775 972 b 21 481 208 972 21 775 z m 163 481 b 493 825 163 686 293 825 b 821 481 690 825 821 686 b 493 136 821 275 690 136 b 163 481 293 136 163 275 z m 376 1097 b 429 1044 376 1065 397 1044 b 482 1097 461 1044 482 1065 b 429 1150 482 1129 461 1150 b 376 1097 397 1150 376 1129 z m 510 1097 b 563 1044 510 1065 531 1044 b 615 1097 594 1044 615 1065 b 563 1150 615 1129 594 1150 b 510 1097 531 1150 510 1129 z "},"ø":{"ha":985,"x_min":0,"x_max":0,"o":"m 21 481 b 493 -11 21 186 208 -11 b 963 481 775 -11 963 186 b 493 972 963 775 775 972 b 21 481 208 972 21 775 z m 163 481 b 493 825 163 686 293 825 b 821 481 690 825 821 686 b 493 136 821 275 690 136 b 163 481 293 136 163 275 z m 713 971 l 165 0 l 274 0 l 821 971 z "},"ù":{"ha":872,"x_min":0,"x_max":0,"o":"m 231 969 l 61 969 l 61 365 b 814 365 61 -128 814 -121 l 814 969 l 644 969 l 644 382 b 231 382 644 58 231 68 z m 478 1042 l 543 1042 l 399 1246 l 333 1246 z "},"ú":{"ha":872,"x_min":0,"x_max":0,"o":"m 231 969 l 61 969 l 61 365 b 814 365 61 -128 814 -121 l 814 969 l 644 969 l 644 382 b 231 382 644 58 231 68 z m 399 1042 l 543 1246 l 478 1246 l 333 1042 z "},"û":{"ha":872,"x_min":0,"x_max":0,"o":"m 231 969 l 61 969 l 61 365 b 814 365 61 -128 814 -121 l 814 969 l 644 969 l 644 382 b 231 382 644 58 231 68 z m 304 1042 l 417 1200 l 528 1042 l 593 1042 l 449 1246 l 383 1246 l 239 1042 z "},"ü":{"ha":872,"x_min":0,"x_max":0,"o":"m 231 969 l 61 969 l 61 365 b 814 365 61 -128 814 -121 l 814 969 l 644 969 l 644 382 b 231 382 644 58 231 68 z m 296 1097 b 349 1044 296 1065 317 1044 b 401 1097 381 1044 401 1065 b 349 1150 401 1129 381 1150 b 296 1097 317 1150 296 1129 z m 429 1097 b 482 1044 429 1065 450 1044 b 535 1097 514 1044 535 1065 b 482 1150 535 1129 514 1150 b 429 1097 450 1150 429 1129 z "},"ý":{"ha":786,"x_min":0,"x_max":0,"o":"m 703 972 l 528 972 l 378 367 l 229 972 l 54 972 l 213 331 l 292 331 l 292 0 l 463 0 l 463 331 l 542 331 z m 364 1042 l 508 1246 l 443 1246 l 299 1042 z "},"ÿ":{"ha":786,"x_min":0,"x_max":0,"o":"m 703 972 l 528 972 l 378 367 l 229 972 l 54 972 l 213 331 l 292 331 l 292 0 l 463 0 l 463 331 l 542 331 z m 261 1097 b 314 1044 261 1065 282 1044 b 367 1097 346 1044 367 1065 b 314 1150 367 1129 346 1150 b 261 1097 282 1150 261 1129 z m 394 1097 b 447 1044 394 1065 415 1044 b 500 1097 479 1044 500 1065 b 447 1150 500 1129 479 1150 b 394 1097 415 1150 394 1129 z "}}}
